<svg xmlns="http://www.w3.org/2000/svg" viewBox="0 0 64 64" role="img" aria-label="智造管家 SmartFactory">
  <rect width="64" height="64" rx="16" fill="#2563eb"/>
  <path d="M0 0h64v64H0z" fill="url(#g)"/>
  <path d="M14 43V30.5l8.2-5.4v5.4l8.3-5.4v5.4l7.8-5.1V43H14Z" fill="#fff" opacity=".95"/>
  <path d="M17 38.5h18.5M18.5 34.5h4.8M27 34.5h4.8" fill="none" stroke="#fff" stroke-width="3.2" stroke-linecap="round"/>
  <path d="M39.5 19.5h6.7c2.4 0 4.3 1.9 4.3 4.3v4.7M44 39h5.2c2.2 0 4-1.8 4-4v-1.2" fill="none" stroke="#fff" stroke-width="3.2" stroke-linecap="round" stroke-linejoin="round" opacity=".82"/>
  <circle cx="38.5" cy="19.5" r="3.7" fill="#fff" stroke="#0f766e" stroke-width="2"/>
  <circle cx="50.5" cy="31" r="3.9" fill="#fff" stroke="#0f766e" stroke-width="2"/>
  <circle cx="42" cy="39" r="3.5" fill="#fff" stroke="#0f766e" stroke-width="2"/>
  <path d="M31.5 18.5l3.2 3.2 6-7.2" fill="none" stroke="#a7f3d0" stroke-width="3.2" stroke-linecap="round" stroke-linejoin="round"/>
  <defs>
    <linearGradient id="g" x1="6" x2="58" y1="5" y2="60" gradientUnits="userSpaceOnUse">
      <stop stop-color="#0f766e"/>
      <stop offset=".58" stop-color="#2563eb"/>
      <stop offset="1" stop-color="#7c3aed"/>
    </linearGradient>
  </defs>
</svg>
