<svg xmlns="http://www.w3.org/2000/svg" width="1800" height="1200" viewBox="0 0 1800 1200" role="img" aria-labelledby="title desc">
  <title id="title">智造管家 SmartFactory 项目视觉概要图</title>
  <desc id="desc">基于 docs/diagrams/project-intro 下的 business-flow、system-architecture、module-map、data-flow 和 mermaid 配置重绘的项目概要图。</desc>
  <defs>
    <linearGradient id="headerGradient" x1="0" x2="1" y1="0" y2="1">
      <stop offset="0%" stop-color="#0f766e"/>
      <stop offset="56%" stop-color="#2563eb"/>
      <stop offset="100%" stop-color="#7c3aed"/>
    </linearGradient>
    <linearGradient id="markGradient" x1="0" x2="1" y1="0" y2="1">
      <stop offset="0%" stop-color="#0f766e"/>
      <stop offset="58%" stop-color="#2563eb"/>
      <stop offset="100%" stop-color="#7c3aed"/>
    </linearGradient>
    <filter id="shadow" x="-8%" y="-8%" width="116%" height="116%">
      <feDropShadow dx="0" dy="8" stdDeviation="10" flood-color="#0f172a" flood-opacity="0.10"/>
    </filter>
    <marker id="arrowBlue" markerWidth="10" markerHeight="10" refX="8" refY="5" orient="auto">
      <path d="M1 1L9 5L1 9Z" fill="#2563eb"/>
    </marker>
    <marker id="arrowGreen" markerWidth="10" markerHeight="10" refX="8" refY="5" orient="auto">
      <path d="M1 1L9 5L1 9Z" fill="#16a34a"/>
    </marker>
    <marker id="arrowOrange" markerWidth="10" markerHeight="10" refX="8" refY="5" orient="auto">
      <path d="M1 1L9 5L1 9Z" fill="#ea580c"/>
    </marker>
    <marker id="arrowPurple" markerWidth="10" markerHeight="10" refX="8" refY="5" orient="auto">
      <path d="M1 1L9 5L1 9Z" fill="#7c3aed"/>
    </marker>
    <style>
      .bg { fill: #f8fbff; }
      .header { fill: url(#headerGradient); }
      .panel { fill: #ffffff; stroke: #cfe0ff; stroke-width: 2; filter: url(#shadow); }
      .panelTitle { font: 800 26px "PingFang SC", "Microsoft YaHei", sans-serif; fill: #0f172a; }
      .panelSub { font: 500 14px "PingFang SC", "Microsoft YaHei", sans-serif; fill: #64748b; }
      .title { font: 900 48px "PingFang SC", "Microsoft YaHei", sans-serif; fill: #ffffff; }
      .subtitle { font: 600 21px "PingFang SC", "Microsoft YaHei", sans-serif; fill: #dbeafe; }
      .source { font: 500 13px "PingFang SC", "Microsoft YaHei", sans-serif; fill: #7b8aa0; }
      .pill { fill: rgba(255,255,255,0.16); stroke: rgba(255,255,255,0.34); stroke-width: 1; }
      .pillText { font: 800 18px "PingFang SC", "Microsoft YaHei", sans-serif; fill: #ffffff; }
      .pillSub { font: 500 12px "PingFang SC", "Microsoft YaHei", sans-serif; fill: #dbeafe; }
      .tag { fill: #1d4ed8; }
      .tagText { font: 900 24px "PingFang SC", "Microsoft YaHei", sans-serif; fill: #ffffff; }
      .nodeText { font: 800 17px "PingFang SC", "Microsoft YaHei", sans-serif; fill: #172033; }
      .nodeSub { font: 500 13px "PingFang SC", "Microsoft YaHei", sans-serif; fill: #56657a; }
      .tiny { font: 500 12px "PingFang SC", "Microsoft YaHei", sans-serif; fill: #64748b; }
      .label { font: 800 15px "PingFang SC", "Microsoft YaHei", sans-serif; fill: #334155; }
      .blue { fill: #eff6ff; stroke: #60a5fa; }
      .green { fill: #ecfdf5; stroke: #4ade80; }
      .amber { fill: #fff7ed; stroke: #fb923c; }
      .purple { fill: #f5f3ff; stroke: #a78bfa; }
      .slate { fill: #f8fafc; stroke: #cbd5e1; }
      .lineBlue { stroke: #2563eb; stroke-width: 2.6; fill: none; marker-end: url(#arrowBlue); }
      .lineGreen { stroke: #16a34a; stroke-width: 2.6; fill: none; marker-end: url(#arrowGreen); }
      .lineOrange { stroke: #ea580c; stroke-width: 2.6; fill: none; marker-end: url(#arrowOrange); }
      .linePurple { stroke: #7c3aed; stroke-width: 2.6; fill: none; marker-end: url(#arrowPurple); }
      .dashBlue { stroke: #2563eb; stroke-width: 2.2; fill: none; stroke-dasharray: 8 7; marker-end: url(#arrowBlue); }
      .dashOrange { stroke: #ea580c; stroke-width: 2.2; fill: none; stroke-dasharray: 8 7; marker-end: url(#arrowOrange); }
      .swim { fill: #f8fbff; stroke: #dbeafe; stroke-width: 1.5; }
      .legendText { font: 600 13px "PingFang SC", "Microsoft YaHei", sans-serif; fill: #475569; }
    </style>
  </defs>

  <rect class="bg" width="1800" height="1200"/>

  <g transform="translate(28 24)">
    <rect class="header" width="1744" height="126" rx="22"/>
    <g transform="translate(34 27)">
      <rect width="72" height="72" rx="20" fill="rgba(255,255,255,0.14)" stroke="rgba(255,255,255,0.34)"/>
      <rect x="19" y="39" width="29" height="15" rx="4" fill="#ffffff"/>
      <path d="M19 39L30 29L30 39L41 31L41 39L48 34L48 39Z" fill="#ffffff"/>
      <path d="M46 19h8c4 0 7 3 7 7v7M51 51h6c4 0 7-3 7-7v-3" stroke="#ffffff" stroke-width="4" fill="none" stroke-linecap="round"/>
      <circle cx="46" cy="19" r="4" fill="#ffffff" stroke="#a7f3d0" stroke-width="2"/>
      <circle cx="61" cy="37" r="4" fill="#ffffff" stroke="#a7f3d0" stroke-width="2"/>
      <path d="M34 21l5 5l8-11" stroke="#a7f3d0" stroke-width="4" fill="none" stroke-linecap="round" stroke-linejoin="round"/>
    </g>
    <text class="title" x="128" y="60">智造管家 SmartFactory 项目总览</text>
    <text class="subtitle" x="130" y="94">销售、主数据、BOM、采购、仓储、生产、质检、结算、分析与 AI 辅助形成端到端闭环</text>
    <g transform="translate(1210 26)">
      <rect class="pill" x="0" y="0" width="112" height="74" rx="8"/>
      <text class="pillText" x="56" y="30" text-anchor="middle">一体化</text>
      <text class="pillSub" x="56" y="52" text-anchor="middle">端到端业务</text>
      <rect class="pill" x="128" y="0" width="112" height="74" rx="8"/>
      <text class="pillText" x="184" y="30" text-anchor="middle">数据驱动</text>
      <text class="pillSub" x="184" y="52" text-anchor="middle">实时分析</text>
      <rect class="pill" x="256" y="0" width="112" height="74" rx="8"/>
      <text class="pillText" x="312" y="30" text-anchor="middle">移动作业</text>
      <text class="pillSub" x="312" y="52" text-anchor="middle">小程序执行</text>
      <rect class="pill" x="384" y="0" width="112" height="74" rx="8"/>
      <text class="pillText" x="440" y="30" text-anchor="middle">安全可靠</text>
      <text class="pillSub" x="440" y="52" text-anchor="middle">租户隔离</text>
    </g>
  </g>

  <!-- 1 Business flow -->
  <g transform="translate(36 180)">
    <rect class="panel" width="842" height="456" rx="14"/>
    <rect class="tag" x="20" y="18" width="44" height="44" rx="8"/>
    <text class="tagText" x="42" y="49" text-anchor="middle">1</text>
    <text class="panelTitle" x="78" y="48">整体业务流程图</text>
    <text class="panelSub" x="78" y="72">来自 business-flow.mmd：订单、MRP、采购、生产、质量、结算的主链路</text>

    <g transform="translate(36 110)">
      <rect class="blue" x="0" y="0" width="130" height="66" rx="8"/>
      <text class="nodeText" x="65" y="28" text-anchor="middle">客户需求</text>
      <text class="nodeSub" x="65" y="50" text-anchor="middle">销售机会</text>
      <rect class="blue" x="180" y="0" width="130" height="66" rx="8"/>
      <text class="nodeText" x="245" y="28" text-anchor="middle">销售订单</text>
      <text class="nodeSub" x="245" y="50" text-anchor="middle">多 SKU</text>
      <rect class="blue" x="360" y="0" width="130" height="66" rx="8"/>
      <text class="nodeText" x="425" y="28" text-anchor="middle">履约策略</text>
      <text class="nodeSub" x="425" y="50" text-anchor="middle">独立 / 合并</text>
      <rect class="blue" x="540" y="0" width="130" height="66" rx="8"/>
      <text class="nodeText" x="605" y="28" text-anchor="middle">生产工单</text>
      <text class="nodeSub" x="605" y="50" text-anchor="middle">批次关联</text>
      <path class="lineBlue" d="M130 33H174"/>
      <path class="lineBlue" d="M310 33H354"/>
      <path class="lineBlue" d="M490 33H534"/>

      <rect class="green" x="0" y="116" width="130" height="66" rx="8"/>
      <text class="nodeText" x="65" y="144" text-anchor="middle">BOM 展开</text>
      <text class="nodeSub" x="65" y="166" text-anchor="middle">工艺快照</text>
      <rect class="green" x="180" y="116" width="130" height="66" rx="8"/>
      <text class="nodeText" x="245" y="144" text-anchor="middle">MRP 缺料</text>
      <text class="nodeSub" x="245" y="166" text-anchor="middle">需求识别</text>
      <rect class="green" x="360" y="116" width="130" height="66" rx="8"/>
      <text class="nodeText" x="425" y="144" text-anchor="middle">AI 建议</text>
      <text class="nodeSub" x="425" y="166" text-anchor="middle">采购 / 排产</text>
      <rect class="green" x="540" y="116" width="130" height="66" rx="8"/>
      <text class="nodeText" x="605" y="144" text-anchor="middle">采购入库</text>
      <text class="nodeSub" x="605" y="166" text-anchor="middle">到货质检</text>
      <path class="lineGreen" d="M130 149H174"/>
      <path class="lineGreen" d="M310 149H354"/>
      <path class="lineGreen" d="M490 149H534"/>
      <path class="dashBlue" d="M605 66V109"/>

      <rect class="purple" x="0" y="232" width="130" height="66" rx="8"/>
      <text class="nodeText" x="65" y="260" text-anchor="middle">排产计划</text>
      <text class="nodeSub" x="65" y="282" text-anchor="middle">产能评估</text>
      <rect class="purple" x="180" y="232" width="130" height="66" rx="8"/>
      <text class="nodeText" x="245" y="260" text-anchor="middle">生产任务</text>
      <text class="nodeSub" x="245" y="282" text-anchor="middle">开工 / 投料</text>
      <rect class="amber" x="360" y="232" width="130" height="66" rx="8"/>
      <text class="nodeText" x="425" y="260" text-anchor="middle">发货结算</text>
      <text class="nodeSub" x="425" y="282" text-anchor="middle">收款 / 对账</text>
      <rect class="amber" x="540" y="232" width="130" height="66" rx="8"/>
      <text class="nodeText" x="605" y="260" text-anchor="middle">经营分析</text>
      <text class="nodeSub" x="605" y="282" text-anchor="middle">报表 / AI</text>
      <path class="linePurple" d="M130 265H174"/>
      <path class="lineOrange" d="M310 265H354"/>
      <path class="lineOrange" d="M490 265H534"/>
      <path class="dashOrange" d="M605 182V225"/>
    </g>
  </g>

  <!-- 2 System architecture -->
  <g transform="translate(922 180)">
    <rect class="panel" width="842" height="456" rx="14"/>
    <rect class="tag" x="20" y="18" width="44" height="44" rx="8"/>
    <text class="tagText" x="42" y="49" text-anchor="middle">2</text>
    <text class="panelTitle" x="78" y="48">系统架构图</text>
    <text class="panelSub" x="78" y="72">来自 system-architecture.mmd：客户端、网关治理、应用域与基础设施</text>

    <g transform="translate(48 88)">
      <rect class="blue" x="70" y="0" width="160" height="58" rx="8"/>
      <text class="nodeText" x="150" y="25" text-anchor="middle">Web 管理端</text>
      <text class="nodeSub" x="150" y="45" text-anchor="middle">React + Vite</text>
      <rect class="green" x="318" y="0" width="160" height="58" rx="8"/>
      <text class="nodeText" x="398" y="25" text-anchor="middle">微信小程序</text>
      <text class="nodeSub" x="398" y="45" text-anchor="middle">移动作业</text>
      <rect class="purple" x="566" y="0" width="160" height="58" rx="8"/>
      <text class="nodeText" x="646" y="25" text-anchor="middle">AI 助手入口</text>
      <text class="nodeSub" x="646" y="45" text-anchor="middle">问答 / 建议</text>
      <path class="lineBlue" d="M150 58V74"/>
      <path class="lineGreen" d="M398 58V74"/>
      <path class="linePurple" d="M646 58V74"/>

      <rect class="blue" x="0" y="76" width="796" height="46" rx="8"/>
      <text class="nodeText" x="398" y="105" text-anchor="middle">Nginx 反向代理 / 静态资源 / SSL / SPA fallback</text>
      <path class="lineBlue" d="M398 122V140"/>
      <rect class="purple" x="0" y="142" width="796" height="58" rx="8"/>
      <text class="nodeText" x="398" y="166" text-anchor="middle">认证与治理：JWT / Refresh Cookie / RBAC / 租户上下文 / 审计日志</text>
      <text class="nodeSub" x="398" y="187" text-anchor="middle">页面守卫、按钮权限、菜单权限、上传鉴权、错误处理</text>
      <path class="lineBlue" d="M398 200V216"/>

      <rect class="slate" x="0" y="218" width="796" height="68" rx="8"/>
      <text class="nodeText" x="398" y="243" text-anchor="middle">Node.js + Express + TypeScript 应用服务层</text>
      <text class="nodeSub" x="398" y="267" text-anchor="middle">销售、生产、MRP、采购、库存、主数据、质量、报表、系统、AI、通知、上传</text>
      <path class="lineGreen" d="M398 286V304"/>

      <g transform="translate(28 304)">
        <rect class="green" x="0" y="0" width="104" height="45" rx="8"/>
        <text class="label" x="52" y="28" text-anchor="middle">MySQL</text>
        <rect class="amber" x="124" y="0" width="104" height="45" rx="8"/>
        <text class="label" x="176" y="28" text-anchor="middle">Redis</text>
        <rect class="purple" x="248" y="0" width="104" height="45" rx="8"/>
        <text class="label" x="300" y="28" text-anchor="middle">BullMQ</text>
        <rect class="blue" x="372" y="0" width="104" height="45" rx="8"/>
        <text class="label" x="424" y="28" text-anchor="middle">文件存储</text>
        <rect class="green" x="496" y="0" width="104" height="45" rx="8"/>
        <text class="label" x="548" y="28" text-anchor="middle">微信服务</text>
        <rect class="purple" x="620" y="0" width="104" height="45" rx="8"/>
        <text class="label" x="672" y="28" text-anchor="middle">LLM API</text>
      </g>
    </g>
  </g>

  <!-- 3 Module map -->
  <g transform="translate(36 662)">
    <rect class="panel" width="842" height="480" rx="14"/>
    <rect class="tag" x="20" y="18" width="44" height="44" rx="8"/>
    <text class="tagText" x="42" y="49" text-anchor="middle">3</text>
    <text class="panelTitle" x="78" y="48">核心模块拆解</text>
    <text class="panelSub" x="78" y="72">来自 module-map.mmd：治理、主数据、交易执行、决策智能四层模块</text>

    <g transform="translate(42 112)">
      <rect class="blue" x="0" y="0" width="170" height="76" rx="8"/>
      <text class="nodeText" x="85" y="28" text-anchor="middle">系统治理</text>
      <text class="nodeSub" x="85" y="51" text-anchor="middle">租户 / 用户 / 角色</text>
      <rect class="green" x="195" y="0" width="170" height="76" rx="8"/>
      <text class="nodeText" x="280" y="28" text-anchor="middle">主数据</text>
      <text class="nodeSub" x="280" y="51" text-anchor="middle">SKU / BOM / 仓库</text>
      <rect class="blue" x="390" y="0" width="170" height="76" rx="8"/>
      <text class="nodeText" x="475" y="28" text-anchor="middle">销售管理</text>
      <text class="nodeSub" x="475" y="51" text-anchor="middle">订单 / 交期 / 发货</text>
      <rect class="purple" x="585" y="0" width="170" height="76" rx="8"/>
      <text class="nodeText" x="670" y="28" text-anchor="middle">联合生产</text>
      <text class="nodeSub" x="670" y="51" text-anchor="middle">合并批次 / 拆分</text>

      <rect class="purple" x="0" y="104" width="170" height="76" rx="8"/>
      <text class="nodeText" x="85" y="132" text-anchor="middle">生产执行</text>
      <text class="nodeSub" x="85" y="155" text-anchor="middle">排产 / 任务 / 报工</text>
      <rect class="green" x="195" y="104" width="170" height="76" rx="8"/>
      <text class="nodeText" x="280" y="132" text-anchor="middle">MRP / 缺料</text>
      <text class="nodeSub" x="280" y="155" text-anchor="middle">净需求 / 建议</text>
      <rect class="amber" x="390" y="104" width="170" height="76" rx="8"/>
      <text class="nodeText" x="475" y="132" text-anchor="middle">采购管理</text>
      <text class="nodeSub" x="475" y="155" text-anchor="middle">订单 / 收货 / 对账</text>
      <rect class="blue" x="585" y="104" width="170" height="76" rx="8"/>
      <text class="nodeText" x="670" y="132" text-anchor="middle">库存管理</text>
      <text class="nodeSub" x="670" y="155" text-anchor="middle">入出库 / 盘点</text>

      <rect class="purple" x="0" y="208" width="170" height="76" rx="8"/>
      <text class="nodeText" x="85" y="236" text-anchor="middle">检验追溯</text>
      <text class="nodeSub" x="85" y="259" text-anchor="middle">来料 / 过程 / 成品</text>
      <rect class="amber" x="195" y="208" width="170" height="76" rx="8"/>
      <text class="nodeText" x="280" y="236" text-anchor="middle">报表分析</text>
      <text class="nodeSub" x="280" y="259" text-anchor="middle">利润 / 绩效 / 库存</text>
      <rect class="green" x="390" y="208" width="170" height="76" rx="8"/>
      <text class="nodeText" x="475" y="236" text-anchor="middle">小程序端</text>
      <text class="nodeSub" x="475" y="259" text-anchor="middle">任务 / 入库 / QC</text>
      <rect class="green" x="585" y="208" width="170" height="76" rx="8"/>
      <text class="nodeText" x="670" y="236" text-anchor="middle">AI 能力</text>
      <text class="nodeSub" x="670" y="259" text-anchor="middle">问答 / 建议 / 预警</text>

      <rect class="slate" x="0" y="316" width="755" height="46" rx="8"/>
      <text class="nodeSub" x="378" y="344" text-anchor="middle">价值落点：订单履约闭环、数据实时透明、AI 辅助决策、移动现场作业、安全合规审计</text>
    </g>
  </g>

  <!-- 4 Data flow -->
  <g transform="translate(922 662)">
    <rect class="panel" width="842" height="480" rx="14"/>
    <rect class="tag" x="20" y="18" width="44" height="44" rx="8"/>
    <text class="tagText" x="42" y="49" text-anchor="middle">4</text>
    <text class="panelTitle" x="78" y="48">数据流向图</text>
    <text class="panelSub" x="78" y="72">来自 data-flow.mmd：主数据到交易执行、库存质量、分析通知的流向</text>

    <g transform="translate(46 112)">
      <rect class="swim" x="0" y="0" width="130" height="290" rx="8"/>
      <text class="nodeText" x="65" y="34" text-anchor="middle">基础数据</text>
      <text class="nodeSub" x="65" y="68" text-anchor="middle">skus / BOM</text>
      <text class="nodeSub" x="65" y="96" text-anchor="middle">customers</text>
      <text class="nodeSub" x="65" y="124" text-anchor="middle">suppliers</text>
      <text class="nodeSub" x="65" y="152" text-anchor="middle">process</text>
      <text class="nodeSub" x="65" y="180" text-anchor="middle">warehouses</text>

      <rect class="blue" x="200" y="20" width="135" height="72" rx="8"/>
      <text class="nodeText" x="267" y="48" text-anchor="middle">销售域</text>
      <text class="nodeSub" x="267" y="72" text-anchor="middle">订单 / 明细</text>
      <rect class="purple" x="200" y="132" width="135" height="72" rx="8"/>
      <text class="nodeText" x="267" y="160" text-anchor="middle">生产域</text>
      <text class="nodeSub" x="267" y="184" text-anchor="middle">批次 / 工单</text>

      <rect class="green" x="410" y="76" width="148" height="92" rx="8"/>
      <text class="nodeText" x="484" y="108" text-anchor="middle">MRP 缺料</text>
      <text class="nodeSub" x="484" y="132" text-anchor="middle">BOM + 库存</text>
      <text class="nodeSub" x="484" y="154" text-anchor="middle">在途 + 产能</text>

      <rect class="amber" x="630" y="18" width="135" height="72" rx="8"/>
      <text class="nodeText" x="697" y="46" text-anchor="middle">采购域</text>
      <text class="nodeSub" x="697" y="70" text-anchor="middle">订单 / 收料</text>
      <rect class="blue" x="630" y="132" width="135" height="72" rx="8"/>
      <text class="nodeText" x="697" y="160" text-anchor="middle">库存域</text>
      <text class="nodeSub" x="697" y="184" text-anchor="middle">入出库 / 盘点</text>
      <rect class="purple" x="630" y="246" width="135" height="72" rx="8"/>
      <text class="nodeText" x="697" y="274" text-anchor="middle">质量域</text>
      <text class="nodeSub" x="697" y="298" text-anchor="middle">检验 / 追溯</text>

      <path class="lineBlue" d="M130 56H194"/>
      <path class="linePurple" d="M130 168H194"/>
      <path class="lineGreen" d="M335 56C365 56 376 95 404 108"/>
      <path class="lineGreen" d="M335 168C365 168 376 149 404 138"/>
      <path class="lineOrange" d="M558 107C586 100 598 62 624 55"/>
      <path class="lineBlue" d="M558 138C588 143 598 165 624 168"/>
      <path class="linePurple" d="M697 204V238"/>
      <path class="dashOrange" d="M697 90C697 118 697 112 697 125"/>
      <path class="dashBlue" d="M697 318C598 344 418 346 290 322C218 308 164 286 128 254"/>

      <rect class="slate" x="190" y="316" width="405" height="42" rx="8"/>
      <text class="tiny" x="392" y="341" text-anchor="middle">分析与反馈：analytics / reports / notifications / AI proactive</text>
    </g>
  </g>

  <g transform="translate(54 1166)">
    <line x1="0" y1="0" x2="80" y2="0" class="lineBlue"/>
    <text class="legendText" x="94" y="5">业务数据创建 / 写入</text>
    <line x1="252" y1="0" x2="332" y2="0" class="lineGreen"/>
    <text class="legendText" x="346" y="5">物料与库存流</text>
    <line x1="500" y1="0" x2="580" y2="0" class="lineOrange"/>
    <text class="legendText" x="594" y="5">采购与财务流</text>
    <line x1="760" y1="0" x2="840" y2="0" class="linePurple"/>
    <text class="legendText" x="854" y="5">质量与生产流</text>
    <text class="source" x="0" y="30">Sources: business-flow.mmd / system-architecture.mmd / module-map.mmd / data-flow.mmd / mermaid-config.json</text>
  </g>
</svg>
